<?xml version="1.0" encoding="UTF-8" standalone="no"?>
<svg
   width="600"
   height="600"
   viewBox="0 0 600 600"
   version="1.1"
   id="svg32"
   sodipodi:docname="logo-light.svg"
   inkscape:version="1.3.2 (091e20e, 2023-11-25)"
   xmlns:inkscape="http://www.inkscape.org/namespaces/inkscape"
   xmlns:sodipodi="http://sodipodi.sourceforge.net/DTD/sodipodi-0.dtd"
   xmlns="http://www.w3.org/2000/svg"
   xmlns:svg="http://www.w3.org/2000/svg">
  <defs
     id="defs32" />
  <sodipodi:namedview
     id="namedview32"
     pagecolor="#ffffff"
     bordercolor="#000000"
     borderopacity="0.25"
     inkscape:showpageshadow="2"
     inkscape:pageopacity="0.0"
     inkscape:pagecheckerboard="0"
     inkscape:deskcolor="#d1d1d1"
     inkscape:zoom="1.3183333"
     inkscape:cx="300"
     inkscape:cy="300"
     inkscape:window-width="1392"
     inkscape:window-height="1212"
     inkscape:window-x="1804"
     inkscape:window-y="25"
     inkscape:window-maximized="0"
     inkscape:current-layer="g32" />
  <g
     transform="scale(1.000000,-1.000000) translate(0,-600)"
     id="g32"
     style="fill:#f2f2f2">
    <path
       d="M 478.000000 246.000000 C 478.000000 374.130062 374.130062 478.000000 246.000000 478.000000 C 117.869938 478.000000 14.000000 374.130062 14.000000 246.000000 C 14.000000 117.869938 117.869938 14.000000 246.000000 14.000000 C 374.130062 14.000000 478.000000 117.869938 478.000000 246.000000 Z M 491.000000 246.000000 C 491.000000 110.690236 381.309764 1.000000 246.000000 1.000000 C 110.690236 1.000000 1.000000 110.690236 1.000000 246.000000 C 1.000000 381.309764 110.690236 491.000000 246.000000 491.000000 C 381.309764 491.000000 491.000000 381.309764 491.000000 246.000000 Z"
       transform="scale(1.000000,1.000000) translate(54.000000,54.002480)"
       fill="#000000"
       opacity="1.000000"
       id="path1"
       style="fill:#f2f2f2" />
    <path
       d="M 10.192388 125.442388 L 125.442388 10.192388 L 116.250000 1.000000 L 1.000000 116.250000 L 10.192388 125.442388 Z"
       transform="scale(1.000000,1.000000) translate(236.778806,236.781359)"
       fill="#000000"
       opacity="1.000000"
       id="path2"
       style="fill:#f2f2f2" />
    <path
       d="M 1.000000 10.192388 L 117.000000 126.192388 L 126.192388 117.000000 L 10.192388 1.000000 L 1.000000 10.192388 Z"
       transform="scale(1.000000,1.000000) translate(236.403806,236.403806)"
       fill="#000000"
       opacity="1.000000"
       id="path3"
       style="fill:#f2f2f2" />
    <path
       d="M 108.500000 1.000000 L 1.000000 112.504855 L 10.358921 121.527637 L 117.858921 10.022782 L 108.500000 1.000000 Z"
       transform="scale(1.000000,1.000000) translate(119.820540,360.488609)"
       fill="#000000"
       opacity="1.000000"
       id="path4"
       style="fill:#f2f2f2" />
    <path
       d="M 109.250000 1.000000 L 1.000000 111.999750 L 10.306944 121.076137 L 118.556944 10.076387 L 109.250000 1.000000 Z"
       transform="scale(1.000000,1.000000) translate(360.596528,116.962057)"
       fill="#000000"
       opacity="1.000000"
       id="path5"
       style="fill:#f2f2f2" />
    <path
       d="M 119.523997 113.212575 L 10.316279 1.000000 L 1.000000 10.066805 L 110.207719 122.279380 L 119.523997 113.212575 Z"
       transform="scale(1.000000,1.000000) translate(359.634142,359.758879)"
       fill="#000000"
       opacity="1.000000"
       id="path6"
       style="fill:#f2f2f2" />
    <path
       d="M 118.690622 112.632691 L 10.327996 1.000000 L 1.000000 10.054750 L 109.362626 121.687441 L 118.690622 112.632691 Z"
       transform="scale(1.000000,1.000000) translate(119.836002,116.972875)"
       fill="#000000"
       opacity="1.000000"
       id="path7"
       style="fill:#f2f2f2" />
    <path
       d="M 92.250000 1.000000 L 1.000000 92.250000 L 10.192388 101.442388 L 101.442388 10.192388 L 92.250000 1.000000 Z"
       transform="scale(1.000000,1.000000) translate(187.903806,185.653806)"
       fill="#000000"
       opacity="1.000000"
       id="path8"
       style="fill:#f2f2f2" />
    <path
       d="M 101.684844 92.350006 L 10.184844 1.000000 L 1.000000 10.199926 L 92.500000 101.549932 L 101.684844 92.350006 Z"
       transform="scale(1.000000,1.000000) translate(309.407578,185.800031)"
       fill="#000000"
       opacity="1.000000"
       id="path9"
       style="fill:#f2f2f2" />
    <path
       d="M 101.442388 92.250000 L 10.192388 1.000000 L 1.000000 10.192388 L 92.250000 101.442388 L 101.442388 92.250000 Z"
       transform="scale(1.000000,1.000000) translate(187.937004,311.842965)"
       fill="#000000"
       opacity="1.000000"
       id="path10"
       style="fill:#f2f2f2" />
    <path
       d="M 93.000000 1.000000 L 1.000000 93.000000 L 10.192388 102.192388 L 102.192388 10.192388 L 93.000000 1.000000 Z"
       transform="scale(1.000000,1.000000) translate(308.903806,311.403806)"
       fill="#000000"
       opacity="1.000000"
       id="path11"
       style="fill:#f2f2f2" />
    <path
       d="M 142.865421 1.000000 L 1.000000 38.500000 L 6.877822 60.736259 L 148.743243 23.236259 L 142.865421 1.000000 Z"
       transform="scale(1.000000,1.000000) translate(121.561089,427.886726)"
       fill="#000000"
       opacity="1.000000"
       id="path12"
       style="fill:#f2f2f2" />
    <path
       d="M 153.845703 38.500000 L 6.679233 1.000000 L 1.000000 23.287806 L 148.166470 60.787806 L 153.845703 38.500000 Z"
       transform="scale(1.000000,1.000000) translate(323.493913,427.860952)"
       fill="#000000"
       opacity="1.000000"
       id="path13"
       style="fill:#f2f2f2" />
    <path
       d="M 144.656618 1.000000 L 1.000000 38.500000 L 6.809237 60.754275 L 150.465855 23.254275 L 144.656618 1.000000 Z"
       transform="scale(1.000000,1.000000) translate(326.938764,110.373112)"
       fill="#000000"
       opacity="1.000000"
       id="path14"
       style="fill:#f2f2f2" />
    <path
       d="M 60.778977 147.218962 L 23.278977 1.000000 L 1.000000 6.713771 L 38.500000 152.932733 L 60.778977 147.218962 Z"
       transform="scale(1.000000,1.000000) translate(113.360512,118.643365)"
       fill="#000000"
       opacity="1.000000"
       id="path15"
       style="fill:#f2f2f2" />
    <path
       d="M 23.275041 152.531125 L 60.775041 6.729098 L 38.500000 1.000000 L 1.000000 146.802027 L 23.275041 152.531125 Z"
       transform="scale(1.000000,1.000000) translate(113.362480,327.838280)"
       fill="#000000"
       opacity="1.000000"
       id="path16"
       style="fill:#f2f2f2" />
    <path
       d="M 60.775041 146.802027 L 23.275041 1.000000 L 1.000000 6.729098 L 38.500000 152.531125 L 60.775041 146.802027 Z"
       transform="scale(1.000000,1.000000) translate(424.862480,327.838280)"
       fill="#000000"
       opacity="1.000000"
       id="path17"
       style="fill:#f2f2f2" />
    <path
       d="M 23.278977 152.932733 L 60.778977 6.713771 L 38.500000 1.000000 L 1.000000 147.218962 L 23.278977 152.932733 Z"
       transform="scale(1.000000,1.000000) translate(424.860512,118.643365)"
       fill="#000000"
       opacity="1.000000"
       id="path18"
       style="fill:#f2f2f2" />
    <path
       d="M 150.654208 38.500000 L 6.801835 1.000000 L 1.000000 23.256206 L 144.852373 60.756206 L 150.654208 38.500000 Z"
       transform="scale(1.000000,1.000000) translate(121.599083,110.372147)"
       fill="#000000"
       opacity="1.000000"
       id="path19"
       style="fill:#f2f2f2" />
    <path
       d="M 101.000000 51.000000 C 101.000000 78.614237 78.614237 101.000000 51.000000 101.000000 C 23.385763 101.000000 1.000000 78.614237 1.000000 51.000000 C 1.000000 23.385763 23.385763 1.000000 51.000000 1.000000 C 78.614237 1.000000 101.000000 23.385763 101.000000 51.000000 Z"
       transform="scale(1.000000,1.000000) translate(249.000000,249.002548)"
       fill="#000000"
       opacity="1.000000"
       id="path20"
       style="fill:#f2f2f2" />
    <path
       d="M 101.000000 51.000000 C 101.000000 78.614237 78.614237 101.000000 51.000000 101.000000 C 23.385763 101.000000 1.000000 78.614237 1.000000 51.000000 C 1.000000 23.385763 23.385763 1.000000 51.000000 1.000000 C 78.614237 1.000000 101.000000 23.385763 101.000000 51.000000 Z"
       transform="scale(1.000000,1.000000) translate(249.000000,489.002563)"
       fill="#000000"
       opacity="1.000000"
       id="path21"
       style="fill:#f2f2f2" />
    <path
       d="M 101.000000 51.000000 C 101.000000 78.614237 78.614237 101.000000 51.000000 101.000000 C 23.385763 101.000000 1.000000 78.614237 1.000000 51.000000 C 1.000000 23.385763 23.385763 1.000000 51.000000 1.000000 C 78.614237 1.000000 101.000000 23.385763 101.000000 51.000000 Z"
       transform="scale(1.000000,1.000000) translate(411.000000,413.002563)"
       fill="#000000"
       opacity="1.000000"
       id="path22"
       style="fill:#f2f2f2" />
    <path
       d="M 101.000000 51.000000 C 101.000000 78.614237 78.614237 101.000000 51.000000 101.000000 C 23.385763 101.000000 1.000000 78.614237 1.000000 51.000000 C 1.000000 23.385763 23.385763 1.000000 51.000000 1.000000 C 78.614237 1.000000 101.000000 23.385763 101.000000 51.000000 Z"
       transform="scale(1.000000,1.000000) translate(489.000000,249.002548)"
       fill="#000000"
       opacity="1.000000"
       id="path23"
       style="fill:#f2f2f2" />
    <path
       d="M 101.000000 51.000000 C 101.000000 78.614237 78.614237 101.000000 51.000000 101.000000 C 23.385763 101.000000 1.000000 78.614237 1.000000 51.000000 C 1.000000 23.385763 23.385763 1.000000 51.000000 1.000000 C 78.614237 1.000000 101.000000 23.385763 101.000000 51.000000 Z"
       transform="scale(1.000000,1.000000) translate(411.000000,85.002556)"
       fill="#000000"
       opacity="1.000000"
       id="path24"
       style="fill:#f2f2f2" />
    <path
       d="M 101.000000 51.000000 C 101.000000 78.614237 78.614237 101.000000 51.000000 101.000000 C 23.385763 101.000000 1.000000 78.614237 1.000000 51.000000 C 1.000000 23.385763 23.385763 1.000000 51.000000 1.000000 C 78.614237 1.000000 101.000000 23.385763 101.000000 51.000000 Z"
       transform="scale(1.000000,1.000000) translate(249.000000,9.002553)"
       fill="#000000"
       opacity="1.000000"
       id="path25"
       style="fill:#f2f2f2" />
    <path
       d="M 101.000000 51.000000 C 101.000000 78.614237 78.614237 101.000000 51.000000 101.000000 C 23.385763 101.000000 1.000000 78.614237 1.000000 51.000000 C 1.000000 23.385763 23.385763 1.000000 51.000000 1.000000 C 78.614237 1.000000 101.000000 23.385763 101.000000 51.000000 Z"
       transform="scale(1.000000,1.000000) translate(87.000000,87.002556)"
       fill="#000000"
       opacity="1.000000"
       id="path26"
       style="fill:#f2f2f2" />
    <path
       d="M 101.000000 51.000000 C 101.000000 78.614237 78.614237 101.000000 51.000000 101.000000 C 23.385763 101.000000 1.000000 78.614237 1.000000 51.000000 C 1.000000 23.385763 23.385763 1.000000 51.000000 1.000000 C 78.614237 1.000000 101.000000 23.385763 101.000000 51.000000 Z"
       transform="scale(1.000000,1.000000) translate(9.000000,249.002548)"
       fill="#000000"
       opacity="1.000000"
       id="path27"
       style="fill:#f2f2f2" />
    <path
       d="M 101.000000 51.000000 C 101.000000 78.614237 78.614237 101.000000 51.000000 101.000000 C 23.385763 101.000000 1.000000 78.614237 1.000000 51.000000 C 1.000000 23.385763 23.385763 1.000000 51.000000 1.000000 C 78.614237 1.000000 101.000000 23.385763 101.000000 51.000000 Z"
       transform="scale(1.000000,1.000000) translate(87.000000,413.002563)"
       fill="#000000"
       opacity="1.000000"
       id="path28"
       style="fill:#f2f2f2" />
    <path
       d="M 60.370712 38.500000 C 60.370712 50.578861 50.578861 60.370712 38.500000 60.370712 C 26.421139 60.370712 16.629288 50.578861 16.629288 38.500000 C 16.629288 26.421139 26.421139 16.629288 38.500000 16.629288 C 50.578861 16.629288 60.370712 26.421139 60.370712 38.500000 Z M 76.000000 38.500000 C 76.000000 17.789322 59.210678 1.000000 38.500000 1.000000 C 17.789322 1.000000 1.000000 17.789322 1.000000 38.500000 C 1.000000 59.210678 17.789322 76.000000 38.500000 76.000000 C 59.210678 76.000000 76.000000 59.210678 76.000000 38.500000 Z"
       transform="scale(1.000000,1.000000) translate(261.500000,401.504852)"
       fill="#000000"
       opacity="1.000000"
       id="path29"
       style="fill:#f2f2f2" />
    <path
       d="M 60.370712 38.500000 C 60.370712 50.578861 50.578861 60.370712 38.500000 60.370712 C 26.421139 60.370712 16.629288 50.578861 16.629288 38.500000 C 16.629288 26.421139 26.421139 16.629288 38.500000 16.629288 C 50.578861 16.629288 60.370712 26.421139 60.370712 38.500000 Z M 76.000000 38.500000 C 76.000000 17.789322 59.210678 1.000000 38.500000 1.000000 C 17.789322 1.000000 1.000000 17.789322 1.000000 38.500000 C 1.000000 59.210678 17.789322 76.000000 38.500000 76.000000 C 59.210678 76.000000 76.000000 59.210678 76.000000 38.500000 Z"
       transform="scale(1.000000,1.000000) translate(398.500000,261.500000)"
       fill="#000000"
       opacity="1.000000"
       id="path30"
       style="fill:#f2f2f2" />
    <path
       d="M 60.370712 38.500000 C 60.370712 50.578861 50.578861 60.370712 38.500000 60.370712 C 26.421139 60.370712 16.629288 50.578861 16.629288 38.500000 C 16.629288 26.421139 26.421139 16.629288 38.500000 16.629288 C 50.578861 16.629288 60.370712 26.421139 60.370712 38.500000 Z M 76.000000 38.500000 C 76.000000 17.789322 59.210678 1.000000 38.500000 1.000000 C 17.789322 1.000000 1.000000 17.789322 1.000000 38.500000 C 1.000000 59.210678 17.789322 76.000000 38.500000 76.000000 C 59.210678 76.000000 76.000000 59.210678 76.000000 38.500000 Z"
       transform="scale(1.000000,1.000000) translate(261.500000,121.500252)"
       fill="#000000"
       opacity="1.000000"
       id="path31"
       style="fill:#f2f2f2" />
    <path
       d="M 60.370712 38.500000 C 60.370712 50.578861 50.578861 60.370712 38.500000 60.370712 C 26.421139 60.370712 16.629288 50.578861 16.629288 38.500000 C 16.629288 26.421139 26.421139 16.629288 38.500000 16.629288 C 50.578861 16.629288 60.370712 26.421139 60.370712 38.500000 Z M 76.000000 38.500000 C 76.000000 17.789322 59.210678 1.000000 38.500000 1.000000 C 17.789322 1.000000 1.000000 17.789322 1.000000 38.500000 C 1.000000 59.210678 17.789322 76.000000 38.500000 76.000000 C 59.210678 76.000000 76.000000 59.210678 76.000000 38.500000 Z"
       transform="scale(1.000000,1.000000) translate(124.500000,261.500000)"
       fill="#000000"
       opacity="1.000000"
       id="path32"
       style="fill:#f2f2f2" />
  </g>
</svg>
